<?xml version="1.0" ?><!DOCTYPE svg  PUBLIC '-//W3C//DTD SVG 1.1//EN'  'http://www.w3.org/Graphics/SVG/1.1/DTD/svg11.dtd'><svg width="32px" height="32px" viewBox="0 0 32 32" enable-background="new 0 0 32 32" version="1.1" xml:space="preserve" xmlns="http://www.w3.org/2000/svg" xmlns:xlink="http://www.w3.org/1999/xlink"><g id="Home"/><g id="Print"/><g id="Mail"/><g id="Camera"/><g id="Video"/><g id="Film"/><g id="Message"/><g id="Telephone"/><g id="User"/><g id="File"/><g id="Folder"/><g id="Map"/><g id="Download"/><g id="Upload"/><g id="Video_Recorder"/><g id="Schedule"/><g id="Cart"/><g id="Setting"/><g id="Search"/><g id="Pencils"><path d="M31,29.7l-0.9-6.8c0-0.2-0.1-0.4-0.3-0.6L13.3,5.8l0,0l0,0L9.4,1.9C8.8,1.3,8,1,7.2,1l0,0   C6.8,1,6.4,1.1,6,1.2c0,0,0,0,0,0C5.8,1.3,5.7,1.4,5.5,1.5c0,0-0.1,0-0.1,0C5.3,1.6,5.1,1.8,4.9,1.9L3.4,3.5l0,0L1.9,5   c-1.2,1.2-1.2,3.2,0,4.5l3.9,3.8l0,0l0,0l16.5,16.5c0.2,0.2,0.4,0.3,0.6,0.3l7,0.9c0,0,0.1,0,0.1,0c0,0,0,0,0,0   c0.3,0,0.5-0.1,0.7-0.3c0.2-0.2,0.3-0.4,0.3-0.7C31,29.9,31,29.8,31,29.7z" fill="#FFC10A"/><path d="M13.2,5.7C13.2,5.7,13.3,5.8,13.2,5.7L9.4,1.9C8.8,1.3,8,1,7.2,1c0,0,0,0,0,0C6.4,1,5.6,1.3,4.9,1.9   L3.4,3.5l0,0L1.9,5c-1.2,1.2-1.2,3.2,0,4.5l3.9,3.8c-0.4-0.4-0.4-1,0-1.4l0.7-0.7l2.3-2.3l3-3c0.2-0.2,0.4-0.3,0.7-0.3   c0,0,0.1,0,0.1,0c0.1,0,0.2,0,0.3,0.1C13.1,5.6,13.2,5.7,13.2,5.7L13.2,5.7C13.3,5.8,13.3,5.8,13.2,5.7L13.2,5.7z" fill="#F44236"/></g><g id="Group"/><g id="Record"/><g id="Headphone"/><g id="Music_Player"/><g id="Sound_On"/><g id="Sound_Off"/><g id="Lock"/><g id="Lock_open"/><g id="Love"/><g id="Favorite"/><g id="Film_1_"/><g id="Music"/><g id="Puzzle"/><g id="Turn_Off"/><g id="Book"/><g id="Save"/><g id="Reload"/><g id="Trash"/><g id="Tag"/><g id="Link"/><g id="Like"/><g id="Bad"/><g id="Gallery"/><g id="Add"/><g id="Close"/><g id="Forward"/><g id="Back"/><g id="Buy"/><g id="Mac"/><g id="Laptop"/></svg>